<svg width="183" height="120" viewBox="0 0 183 120" fill="none" xmlns="http://www.w3.org/2000/svg">
<path d="M69.25 79.3C68.3167 79.3 67.65 78.9333 67.25 78.2C66.85 77.4667 66.65 76.6167 66.65 75.65C66.65 75.4833 66.65 75.3 66.65 75.1C66.65 74.9 66.6667 74.7167 66.7 74.55C66.0667 75.6833 65.25 76.75 64.25 77.75C63.25 78.75 62.0167 79.25 60.55 79.25C59.55 79.25 58.7 78.8833 58 78.15C57.3333 77.4167 57 76.3 57 74.8C57 73.6 57.3333 72.1 58 70.3C58.3667 69.4333 58.9 68.55 59.6 67.65C60.3 66.75 61.15 66 62.15 65.4C63.15 64.7667 64.2667 64.45 65.5 64.45C66.8333 64.45 67.7667 64.7 68.3 65.2C68.8333 65.7 69.1667 66.0833 69.3 66.35C69.3 66.3833 69.3 66.4167 69.3 66.45C69.3333 66.45 69.35 66.4667 69.35 66.5C69.35 66.8 69.1667 66.95 68.8 66.95C68.6333 66.95 68.4667 66.8667 68.3 66.7C67.9 66.2333 67.5 65.9 67.1 65.7C66.7 65.5 66.3167 65.4 65.95 65.4C65.1833 65.4 64.4667 65.7333 63.8 66.4C63.1333 67.0333 62.5333 67.8 62 68.7C61.5 69.5667 61.0833 70.3833 60.75 71.15C60.2833 72.2167 59.9333 73.1833 59.7 74.05C59.5 74.8833 59.4 75.5833 59.4 76.15C59.4 77.65 59.9167 78.4 60.95 78.4C61.6833 78.4 62.55 77.9333 63.55 77C64.55 76.0667 65.5 74.6833 66.4 72.85C67.2 71.25 67.9167 69.8333 68.55 68.6C69.1833 67.3333 69.7333 66.2333 70.2 65.3C70.3 65.0667 70.55 64.9 70.95 64.8C71.35 64.6667 71.75 64.6 72.15 64.6C72.5167 64.6 72.85 64.6667 73.15 64.8C73.45 64.9 73.6 65.0833 73.6 65.35C73.6 65.4833 73.5167 65.6667 73.35 65.9C72.95 66.4667 72.4333 67.3 71.8 68.4C71.2 69.5 70.6333 70.65 70.1 71.85C69.6 73.05 69.2667 74.1167 69.1 75.05C69 75.55 68.95 76 68.95 76.4C68.95 77.4667 69.3167 78 70.05 78C70.2833 78 70.65 77.9167 71.15 77.75C72.0833 77.35 73.0333 76.7333 74 75.9C75 75.0333 75.9333 74.0833 76.8 73.05C77.7 72.0167 78.45 71.05 79.05 70.15C79.35 69.7167 79.5833 69.5 79.75 69.5C79.85 69.5 79.9 69.5833 79.9 69.75C79.9 70.0167 79.7667 70.35 79.5 70.75C78.9 71.65 78.1333 72.65 77.2 73.75C76.3 74.85 75.3167 75.8667 74.25 76.8C73.2167 77.7333 72.2 78.4167 71.2 78.85C70.4667 79.15 69.8167 79.3 69.25 79.3ZM78.602 80.4C77.1686 80.4 76.1186 80.1167 75.452 79.55C74.7853 78.9833 74.452 78.3833 74.452 77.75C74.452 77.2167 74.6686 76.7667 75.102 76.4C75.502 76 76.0853 75.8333 76.852 75.9C77.9853 75.9667 79.1353 76.1333 80.302 76.4C81.4686 76.6333 82.602 76.7167 83.702 76.65C84.002 76.1167 84.252 75.5167 84.452 74.85C84.652 74.1833 84.752 73.5333 84.752 72.9C84.752 72.1667 84.5686 71.4333 84.202 70.7C83.8686 69.9667 83.4686 69.3 83.002 68.7C82.5686 68.0667 82.1853 67.5667 81.852 67.2C81.1853 68.3667 80.452 69.5 79.652 70.6C78.8853 71.7 78.052 72.7667 77.152 73.8C76.8186 74.1667 76.5353 74.35 76.302 74.35C76.1686 74.35 76.102 74.2833 76.102 74.15C76.102 74.0167 76.2853 73.7333 76.652 73.3C77.6186 72.1667 78.5186 70.95 79.352 69.65C80.1853 68.35 80.8186 67.3333 81.252 66.6C81.0186 66.3333 80.802 65.9 80.602 65.3C80.402 64.6667 80.302 64.0333 80.302 63.4C80.302 62.4333 80.502 61.5167 80.902 60.65C81.302 59.7833 81.902 59.35 82.702 59.35C83.1686 59.35 83.552 59.4833 83.852 59.75C84.152 59.9833 84.302 60.4667 84.302 61.2C84.302 61.4333 84.2853 61.6833 84.252 61.95C84.2186 62.2167 84.1686 62.5167 84.102 62.85C83.9686 63.2833 83.752 63.8 83.452 64.4C83.152 65 82.9186 65.4333 82.752 65.7C83.452 66.5333 84.1686 67.2833 84.902 67.95C85.6353 68.5833 86.252 69.3 86.752 70.1C87.252 70.9 87.502 71.95 87.502 73.25C87.502 73.6833 87.4353 74.1833 87.302 74.75C87.1686 75.2833 87.002 75.7667 86.802 76.2C87.6686 76.0667 88.652 75.5667 89.752 74.7C90.8853 73.8 91.9853 72.55 93.052 70.95C93.2853 70.5833 93.5353 70.4 93.802 70.4C93.9686 70.4 94.052 70.4833 94.052 70.65C94.052 70.75 94.002 70.8833 93.902 71.05C92.6686 72.8833 91.402 74.3667 90.102 75.5C88.8353 76.6 87.5186 77.25 86.152 77.45C85.3853 78.4833 84.3186 79.2333 82.952 79.7C81.6186 80.1667 80.1686 80.4 78.602 80.4ZM82.202 65C82.302 64.7333 82.4353 64.4167 82.602 64.05C82.802 63.65 82.9686 63.1833 83.102 62.65C83.202 62.25 83.252 61.8833 83.252 61.55C83.252 60.7833 83.102 60.4 82.802 60.4C82.6353 60.4 82.4186 60.5833 82.152 60.95C81.8853 61.3167 81.752 61.8667 81.752 62.6C81.752 63.0333 81.7853 63.4833 81.852 63.95C81.952 64.4167 82.0686 64.7667 82.202 65ZM78.752 79.4C79.652 79.4 80.452 79.2333 81.152 78.9C81.8853 78.5333 82.5186 78.0833 83.052 77.55C82.1853 77.55 81.3686 77.5 80.602 77.4C79.8353 77.3 79.0186 77.2333 78.152 77.2C77.652 77.1667 77.2686 77.25 77.002 77.45C76.7686 77.6167 76.652 77.8333 76.652 78.1C76.652 78.4 76.8186 78.7 77.152 79C77.5186 79.2667 78.052 79.4 78.752 79.4ZM89.9527 79.9C90.6194 78.2 91.3361 76.25 92.1027 74.05C92.8694 71.85 93.7527 69.5333 94.7527 67.1C95.7527 64.6667 96.8861 62.2333 98.1527 59.8C99.4194 57.3333 100.836 55.1 102.403 53.1C103.036 52.3 103.753 51.7 104.553 51.3C105.353 50.8667 106.103 50.65 106.803 50.65C107.469 50.65 108.019 50.85 108.453 51.25C108.919 51.6167 109.153 52.1833 109.153 52.95C109.153 53.35 109.086 53.8 108.953 54.3C108.819 54.8 108.603 55.35 108.303 55.95C107.536 57.5167 106.269 59.2667 104.503 61.2C102.736 63.1333 100.319 65.4333 97.2527 68.1C97.0861 68.4333 96.9361 68.7833 96.8027 69.15C96.6694 69.4833 96.5194 69.85 96.3527 70.25L95.9527 71.25C96.5194 70.55 97.1694 69.7833 97.9027 68.95C98.6361 68.1167 99.4194 67.3333 100.253 66.6C101.086 65.8333 101.903 65.2333 102.703 64.8C103.669 64.2667 104.553 64 105.353 64C106.053 64 106.603 64.2167 107.003 64.65C107.436 65.05 107.653 65.6 107.653 66.3C107.653 67 107.436 67.7667 107.003 68.6C106.369 69.8667 105.686 71.1333 104.953 72.4C104.253 73.6667 103.669 74.9833 103.203 76.35C103.103 76.6833 103.053 76.9667 103.053 77.2C103.053 77.9333 103.453 78.3 104.253 78.3C104.919 78.3 105.619 78.0667 106.353 77.6C107.419 76.9333 108.569 75.95 109.803 74.65C111.069 73.3167 112.219 71.9167 113.253 70.45C113.386 70.2833 113.519 70.2 113.653 70.2C113.853 70.2 113.953 70.3167 113.953 70.55C113.953 70.75 113.886 70.9333 113.753 71.1C112.819 72.4333 111.736 73.7667 110.503 75.1C109.269 76.4 108.069 77.4667 106.903 78.3C105.703 79.1333 104.436 79.55 103.103 79.55C102.269 79.55 101.553 79.3333 100.953 78.9C100.386 78.4667 100.103 77.75 100.103 76.75C100.103 76.2167 100.203 75.6333 100.403 75C100.769 73.7 101.286 72.5333 101.953 71.5C102.653 70.4333 103.286 69.2833 103.853 68.05C104.253 67.1833 104.453 66.5667 104.453 66.2C104.453 65.8667 104.303 65.7 104.003 65.7C103.669 65.7 103.236 65.8667 102.703 66.2C102.169 66.5 101.669 66.8333 101.203 67.2C100.236 68 99.2694 68.9333 98.3027 70C97.3361 71.0667 96.4861 72.1333 95.7527 73.2C95.0194 74.2667 94.5194 75.2 94.2527 76L93.2027 79.15C92.7027 79.15 92.1027 79.2333 91.4027 79.4C90.7027 79.5667 90.2194 79.7333 89.9527 79.9ZM98.0527 66C100.053 64.1333 101.786 62.3167 103.253 60.55C104.753 58.7833 105.903 57.15 106.703 55.65C107.403 54.2833 107.753 53.3 107.753 52.7C107.753 52.3333 107.636 52.15 107.403 52.15C106.836 52.15 105.969 52.9833 104.803 54.65C103.469 56.4833 102.253 58.3167 101.153 60.15C100.086 61.9833 99.0527 63.9333 98.0527 66ZM119.825 62.8C119.325 62.8 118.941 62.6333 118.675 62.3C118.408 61.9667 118.275 61.5833 118.275 61.15C118.275 60.6833 118.441 60.3 118.775 60C119.141 59.7 119.525 59.55 119.925 59.55C120.425 59.55 120.825 59.7167 121.125 60.05C121.425 60.35 121.575 60.7167 121.575 61.15C121.575 61.5833 121.391 61.9667 121.025 62.3C120.658 62.6333 120.258 62.8 119.825 62.8ZM117.425 79.85C116.291 79.85 115.391 79.4333 114.725 78.6C114.058 77.7333 113.725 76.65 113.725 75.35C113.725 74.4167 113.891 73.4667 114.225 72.5C114.391 71.9667 114.591 71.35 114.825 70.65C115.058 69.9167 115.275 69.2833 115.475 68.75C115.041 69.3833 114.591 70.0167 114.125 70.65C113.691 71.2833 113.208 71.9 112.675 72.5C112.375 72.8333 112.091 73 111.825 73C111.691 73 111.625 72.9333 111.625 72.8C111.625 72.6667 111.708 72.5 111.875 72.3C113.041 70.8 114.008 69.4167 114.775 68.15C115.575 66.8833 116.175 65.9333 116.575 65.3C116.841 64.8333 117.275 64.55 117.875 64.45C118.475 64.35 118.991 64.3167 119.425 64.35C119.558 64.35 119.708 64.3667 119.875 64.4C120.041 64.4 120.291 64.4 120.625 64.4C120.425 64.8 120.108 65.4833 119.675 66.45C119.275 67.3833 118.858 68.4 118.425 69.5C117.991 70.5667 117.608 71.5167 117.275 72.35C116.975 73.0833 116.725 73.8167 116.525 74.55C116.358 75.2833 116.275 75.95 116.275 76.55C116.275 77.1833 116.391 77.7 116.625 78.1C116.858 78.5 117.225 78.7 117.725 78.7C118.391 78.7 119.158 78.4333 120.025 77.9C120.891 77.3667 121.758 76.7 122.625 75.9C123.525 75.1 124.341 74.2833 125.075 73.45C125.841 72.5833 126.441 71.8167 126.875 71.15C127.008 70.95 127.158 70.85 127.325 70.85C127.491 70.85 127.575 70.9833 127.575 71.25C127.575 71.45 127.508 71.6333 127.375 71.8C125.641 74.1667 123.958 76.1 122.325 77.6C120.725 79.1 119.091 79.85 117.425 79.85ZM131.286 79.65C129.653 79.65 128.469 79.0667 127.736 77.9C127.003 76.7 126.636 75.3167 126.636 73.75C126.636 72.2833 126.903 70.8167 127.436 69.35C128.003 67.85 128.769 66.6 129.736 65.6C130.736 64.6 131.903 64.1 133.236 64.1C133.303 64.1 133.453 64.1167 133.686 64.15C133.919 64.15 134.069 64.1667 134.136 64.2C135.136 63.2 136.169 62.7 137.236 62.7C138.203 62.7 139.019 63.1333 139.686 64C140.386 64.8333 140.736 66.0167 140.736 67.55C140.736 68.6167 140.569 69.75 140.236 70.95C139.903 72.15 139.469 73.2833 138.936 74.35C138.436 75.3833 137.886 76.2333 137.286 76.9C137.419 76.9333 137.536 76.95 137.636 76.95C137.736 76.95 137.853 76.95 137.986 76.95C139.153 76.95 140.303 76.65 141.436 76.05C142.569 75.45 143.636 74.6667 144.636 73.7C145.669 72.7 146.569 71.6167 147.336 70.45C147.503 70.25 147.619 70.15 147.686 70.15C147.853 70.15 147.936 70.2667 147.936 70.5C147.936 70.7333 147.869 70.9333 147.736 71.1C147.403 71.7 146.886 72.4 146.186 73.2C145.486 73.9667 144.669 74.7333 143.736 75.5C142.836 76.2667 141.869 76.9 140.836 77.4C139.803 77.9 138.769 78.15 137.736 78.15C137.503 78.15 137.253 78.1333 136.986 78.1C136.753 78.0333 136.519 77.9833 136.286 77.95C135.753 78.45 134.986 78.85 133.986 79.15C132.986 79.4833 132.086 79.65 131.286 79.65ZM135.886 76.45C136.853 75.3833 137.603 74.0167 138.136 72.35C138.669 70.6833 138.936 69.0833 138.936 67.55C138.936 67.35 138.936 67.15 138.936 66.95C138.936 66.75 138.919 66.5667 138.886 66.4C138.786 65.5333 138.586 64.9167 138.286 64.55C137.986 64.15 137.636 63.95 137.236 63.95C136.636 63.95 136.003 64.3167 135.336 65.05C134.703 65.75 134.253 66.6 133.986 67.6C133.719 68.5667 133.586 69.5833 133.586 70.65C133.586 71.8833 133.769 73.05 134.136 74.15C134.503 75.2167 135.086 75.9833 135.886 76.45ZM132.286 78.35C133.253 78.35 134.153 78.0167 134.986 77.35C134.053 76.6833 133.369 75.7667 132.936 74.6C132.503 73.4333 132.286 72.2 132.286 70.9C132.286 69.9667 132.386 69.05 132.586 68.15C132.819 67.2167 133.136 66.3833 133.536 65.65C132.903 65.7833 132.286 66.3333 131.686 67.3C131.086 68.2667 130.586 69.4 130.186 70.7C129.819 72 129.636 73.25 129.636 74.45C129.636 75.55 129.836 76.4833 130.236 77.25C130.636 77.9833 131.319 78.35 132.286 78.35ZM144.708 79.8C145.541 77.9667 146.374 76.0833 147.208 74.15C148.041 72.2167 148.808 70.4167 149.508 68.75C149.074 69.3833 148.624 70.0167 148.158 70.65C147.724 71.2833 147.241 71.9 146.708 72.5C146.408 72.8333 146.141 73 145.908 73C145.774 73 145.708 72.9333 145.708 72.8C145.708 72.7 145.791 72.55 145.958 72.35C147.124 70.85 148.091 69.4667 148.858 68.2C149.624 66.9 150.208 65.9333 150.608 65.3C150.874 64.8333 151.208 64.5833 151.608 64.55C152.041 64.4833 152.408 64.45 152.708 64.45C152.841 64.45 153.074 64.4667 153.408 64.5C153.741 64.5 154.074 64.5 154.408 64.5C154.274 64.7667 154.008 65.2333 153.608 65.9C153.241 66.5667 152.841 67.2667 152.408 68C152.008 68.7333 151.674 69.4 151.408 70C151.874 69.4333 152.524 68.6333 153.358 67.6C154.224 66.5333 155.224 65.65 156.358 64.95C157.424 64.3167 158.391 64 159.258 64C160.691 64 161.408 64.75 161.408 66.25C161.408 66.65 161.341 67.1 161.208 67.6C161.074 68.1 160.858 68.6333 160.558 69.2C159.924 70.4333 159.241 71.7333 158.508 73.1C157.808 74.4333 157.291 75.6833 156.958 76.85C156.924 76.9833 156.891 77.1 156.858 77.2C156.858 77.3 156.858 77.4 156.858 77.5C156.858 78.1 157.158 78.4 157.758 78.4C158.091 78.4 158.474 78.3 158.908 78.1C159.841 77.7 160.841 77.0667 161.908 76.2C162.974 75.3333 163.974 74.3833 164.908 73.35C165.874 72.3167 166.641 71.3667 167.208 70.5C167.408 70.1667 167.608 70 167.808 70C167.974 70 168.058 70.0833 168.058 70.25C168.058 70.45 167.991 70.6333 167.858 70.8C167.258 71.7 166.474 72.7167 165.508 73.85C164.574 74.95 163.558 75.9833 162.458 76.95C161.391 77.8833 160.358 78.5667 159.358 79C158.658 79.2667 157.991 79.4 157.358 79.4C156.491 79.4 155.724 79.1833 155.058 78.75C154.424 78.2833 154.108 77.6 154.108 76.7C154.108 76.5667 154.108 76.4333 154.108 76.3C154.141 76.1333 154.174 75.9833 154.208 75.85C154.474 74.6167 155.008 73.35 155.808 72.05C156.608 70.7167 157.341 69.4333 158.008 68.2C158.374 67.4667 158.558 66.9 158.558 66.5C158.558 65.9667 158.291 65.7 157.758 65.7C157.524 65.7 157.258 65.75 156.958 65.85C156.658 65.95 156.341 66.1333 156.008 66.4C155.308 66.8667 154.574 67.5833 153.808 68.55C153.041 69.4833 152.258 70.6333 151.458 72C150.724 73.3 150.041 74.6 149.408 75.9C148.774 77.2 148.258 78.2833 147.858 79.15C147.358 79.15 146.774 79.2333 146.108 79.4C145.474 79.5667 145.008 79.7 144.708 79.8ZM167.03 80.4C165.596 80.4 164.546 80.1167 163.88 79.55C163.213 78.9833 162.88 78.3833 162.88 77.75C162.88 77.2167 163.096 76.7667 163.53 76.4C163.93 76 164.513 75.8333 165.28 75.9C166.413 75.9667 167.563 76.1333 168.73 76.4C169.896 76.6333 171.03 76.7167 172.13 76.65C172.43 76.1167 172.68 75.5167 172.88 74.85C173.08 74.1833 173.18 73.5333 173.18 72.9C173.18 72.1667 172.996 71.4333 172.63 70.7C172.296 69.9667 171.896 69.3 171.43 68.7C170.996 68.0667 170.613 67.5667 170.28 67.2C169.613 68.3667 168.88 69.5 168.08 70.6C167.313 71.7 166.48 72.7667 165.58 73.8C165.246 74.1667 164.963 74.35 164.73 74.35C164.596 74.35 164.53 74.2833 164.53 74.15C164.53 74.0167 164.713 73.7333 165.08 73.3C166.046 72.1667 166.946 70.95 167.78 69.65C168.613 68.35 169.246 67.3333 169.68 66.6C169.446 66.3333 169.23 65.9 169.03 65.3C168.83 64.6667 168.73 64.0333 168.73 63.4C168.73 62.4333 168.93 61.5167 169.33 60.65C169.73 59.7833 170.33 59.35 171.13 59.35C171.596 59.35 171.98 59.4833 172.28 59.75C172.58 59.9833 172.73 60.4667 172.73 61.2C172.73 61.4333 172.713 61.6833 172.68 61.95C172.646 62.2167 172.596 62.5167 172.53 62.85C172.396 63.2833 172.18 63.8 171.88 64.4C171.58 65 171.346 65.4333 171.18 65.7C171.88 66.5333 172.596 67.2833 173.33 67.95C174.063 68.5833 174.68 69.3 175.18 70.1C175.68 70.9 175.93 71.95 175.93 73.25C175.93 73.6833 175.863 74.1833 175.73 74.75C175.596 75.2833 175.43 75.7667 175.23 76.2C176.096 76.0667 177.08 75.5667 178.18 74.7C179.313 73.8 180.413 72.55 181.48 70.95C181.713 70.5833 181.963 70.4 182.23 70.4C182.396 70.4 182.48 70.4833 182.48 70.65C182.48 70.75 182.43 70.8833 182.33 71.05C181.096 72.8833 179.83 74.3667 178.53 75.5C177.263 76.6 175.946 77.25 174.58 77.45C173.813 78.4833 172.746 79.2333 171.38 79.7C170.046 80.1667 168.596 80.4 167.03 80.4ZM170.63 65C170.73 64.7333 170.863 64.4167 171.03 64.05C171.23 63.65 171.396 63.1833 171.53 62.65C171.63 62.25 171.68 61.8833 171.68 61.55C171.68 60.7833 171.53 60.4 171.23 60.4C171.063 60.4 170.846 60.5833 170.58 60.95C170.313 61.3167 170.18 61.8667 170.18 62.6C170.18 63.0333 170.213 63.4833 170.28 63.95C170.38 64.4167 170.496 64.7667 170.63 65ZM167.18 79.4C168.08 79.4 168.88 79.2333 169.58 78.9C170.313 78.5333 170.946 78.0833 171.48 77.55C170.613 77.55 169.796 77.5 169.03 77.4C168.263 77.3 167.446 77.2333 166.58 77.2C166.08 77.1667 165.696 77.25 165.43 77.45C165.196 77.6167 165.08 77.8333 165.08 78.1C165.08 78.4 165.246 78.7 165.58 79C165.946 79.2667 166.48 79.4 167.18 79.4Z" fill="black"/>
<path d="M19.1 94.2C18.6333 94.2 18.1667 94.2 17.7 94.2C17.2333 94.2 16.7667 94.1667 16.3 94.1C13.4333 93.8333 10.7667 93 8.3 91.6C5.9 90.2 3.93333 88.2667 2.4 85.8C0.933333 83.2667 0.2 80.3 0.2 76.9C0.2 75.9 0.266667 74.8333 0.4 73.7C0.6 72.5667 0.866667 71.4 1.2 70.2C1.86667 67.8667 3 65.6667 4.6 63.6C6.26667 61.4667 8.3 59.6667 10.7 58.2C9.56667 56.4 8.7 54.4667 8.1 52.4C7.56667 50.3333 7.3 48.2667 7.3 46.2C7.3 43.4667 7.76667 40.8667 8.7 38.4C9.7 35.8667 11.2 33.7333 13.2 32C15.7333 29.7333 18.4667 28.1333 21.4 27.2C24.4 26.2667 27.4667 25.8 30.6 25.8C33.8667 25.8 37.1333 26.2 40.4 27C43.7333 27.7333 46.9333 28.7 50 29.9C53.0667 31.0333 55.9 32.2 58.5 33.4C61.1 34.6 63.3333 35.6 65.2 36.4C67.8 33.8667 70.2667 32.1333 72.6 31.2C75 30.2667 77.1333 29.8 79 29.8C80.4 29.8 81.5667 30 82.5 30.4C83.5 30.7333 84.2333 31.1667 84.7 31.7C85.0333 32.0333 85.2 32.4333 85.2 32.9C85.2 33.3667 85.0333 33.6 84.7 33.6C84.4333 33.6 84.1667 33.4333 83.9 33.1C83.1667 32.1667 82.3333 31.5333 81.4 31.2C80.4667 30.8 79.5 30.6 78.5 30.6C76.3 30.6 74.0333 31.3 71.7 32.7C69.4333 34.0333 67.6333 35.4333 66.3 36.9C67.9 37.4333 69.8667 38.0333 72.2 38.7C74.5333 39.3 77.0333 39.8333 79.7 40.3C82.3667 40.7667 85 41 87.6 41C90.5333 41 93.2333 40.6333 95.7 39.9C98.2333 39.1 100.267 37.6667 101.8 35.6C102.267 35.0667 102.667 34.8 103 34.8C103.333 34.8 103.5 35 103.5 35.4C103.5 35.8 103.333 36.1667 103 36.5C101.533 38.1667 99.4333 39.5667 96.7 40.7C93.9667 41.8333 90.5333 42.4 86.4 42.4C83.5333 42.4 80.3667 42.0667 76.9 41.4C73.4333 40.7333 69.6 39.6333 65.4 38.1C64.3333 39.3 63.2 40.9667 62 43.1C60.8667 45.2333 59.8 47.4667 58.8 49.8C57.8 52.0667 56.9333 54.1333 56.2 56C55.5333 57.8667 55.1333 59.1 55 59.7L54.7 60.9C55.3667 60.9667 56 61.0333 56.6 61.1C57.2 61.1 57.8 61.1 58.4 61.1C59.6667 61.1 60.8 60.9667 61.8 60.7C62.8667 60.4333 63.7667 59.9333 64.5 59.2C64.8333 58.8667 65.1667 58.7 65.5 58.7C66.1 58.7 66.4 58.9667 66.4 59.5C66.4 59.7667 66.2667 60.0333 66 60.3C65.3333 61.0333 64.4333 61.5667 63.3 61.9C62.1667 62.1667 60.9333 62.3 59.6 62.3C58.7333 62.3 57.8667 62.2667 57 62.2C56.1333 62.0667 55.2333 61.9667 54.3 61.9C51.5667 69.9667 48.2333 76.3667 44.3 81.1C40.4333 85.8333 36.3333 89.2 32 91.2C27.6667 93.2 23.3667 94.2 19.1 94.2ZM17.5 92.6C21.2333 92.6 24.7 91.6333 27.9 89.7C31.1667 87.8333 34.1333 85.3667 36.8 82.3C39.5333 79.2333 42 75.8667 44.2 72.2C46.4667 68.5333 48.4667 64.9333 50.2 61.4C48.6 61.2 47 61.1 45.4 61.1C43.1333 61.1 41.1 61.4 39.3 62C39.1667 62.0667 39.0333 62.1 38.9 62.1C38.7 62.1 38.6 62 38.6 61.8C38.6 61.4667 38.8 61.2 39.2 61C40.1333 60.6 41.1333 60.3333 42.2 60.2C43.2667 60 44.3333 59.9 45.4 59.9C46.3333 59.9 47.2333 59.9333 48.1 60C49.0333 60.0667 49.9333 60.1667 50.8 60.3C52.5333 56.7667 54.0333 53.6 55.3 50.8C56.6333 47.9333 57.7333 45.8333 58.6 44.5C60.4 41.7 62.2 39.4 64 37.6C61.7333 36.7333 58.7667 35.7 55.1 34.5C51.5 33.2333 47.5667 32.1333 43.3 31.2C39.1 30.2 34.9667 29.7 30.9 29.7C27.8333 29.7 24.9333 30.0667 22.2 30.8C19.5333 31.5333 17.1667 32.7667 15.1 34.5C13.3667 35.9667 12 37.9333 11 40.4C10.0667 42.8 9.6 45.3333 9.6 48C9.6 49.6667 9.8 51.3 10.2 52.9C10.6 54.5 11.2333 56 12.1 57.4C15.1667 55.8 18.2667 55 21.4 55C23.8 55 26.0333 55.5667 28.1 56.7C30.1667 57.8333 31.7333 59.7333 32.8 62.4C34.4667 61.5333 35.9 60.4333 37.1 59.1C38.3 57.7 39.1 56.0333 39.5 54.1C39.6333 53.6333 39.8667 53.4 40.2 53.4C40.5333 53.4 40.6333 53.7 40.5 54.3C39.8333 56.7 38.8667 58.6667 37.6 60.2C36.3333 61.7333 34.9333 62.9333 33.4 63.8C33.8667 65.2 34.1 66.6333 34.1 68.1C34.1 70.7 33.4333 73.1 32.1 75.3C30.8333 77.5 29.1333 79.2667 27 80.6C24.8667 81.8667 22.5333 82.5 20 82.5C18.9333 82.5 17.7667 82.2333 16.5 81.7C15.3 81.1667 14.4333 80.5667 13.9 79.9C13.6333 79.6333 13.5 79.3333 13.5 79C13.5 78.6667 13.6333 78.5 13.9 78.5C14.3 78.5 14.7333 78.7667 15.2 79.3C15.7333 79.9 16.6 80.3667 17.8 80.7C19 81.0333 20.0333 81.2 20.9 81.2C22.8333 81.2 24.6333 80.6 26.3 79.4C27.9667 78.1333 29.3 76.5 30.3 74.5C31.3667 72.5 31.9 70.4 31.9 68.2C31.9 67.0667 31.7333 65.9 31.4 64.7C30.3333 65.1 29.2667 65.4 28.2 65.6C27.1333 65.7333 26.0667 65.8 25 65.8C23.7333 65.8 22.5333 65.7 21.4 65.5C17.5333 64.7 14.4 62.8667 12 60C10.4667 61.2667 9.13333 62.8333 8 64.7C6.86667 66.5667 5.93333 68.5667 5.2 70.7C4.8 71.9 4.5 73.0667 4.3 74.2C4.16667 75.3333 4.1 76.4333 4.1 77.5C4.1 80.4333 4.7 83.0333 5.9 85.3C7.1 87.5667 8.7 89.3333 10.7 90.6C12.7667 91.9333 15.0333 92.6 17.5 92.6ZM24.4 64.6C25.4667 64.6 26.5667 64.5 27.7 64.3C28.8333 64.1 29.9333 63.7667 31 63.3C30.1333 60.9 28.8333 59.1333 27.1 58C25.3667 56.8667 23.4667 56.3 21.4 56.3C18.5333 56.3 15.8 57.2333 13.2 59.1C14.1333 60.3 15.3 61.3667 16.7 62.3C18.1 63.1667 19.7333 63.8333 21.6 64.3C22.5333 64.5 23.4667 64.6 24.4 64.6Z" fill="black"/>
<path d="M74.806 85.186C74.89 85.186 74.9787 85.2093 75.072 85.256C75.1747 85.3027 75.254 85.3633 75.31 85.438L79.02 91.052L78.53 91.038L82.282 85.438C82.4033 85.2607 82.562 85.1767 82.758 85.186C82.9073 85.1953 83.038 85.2513 83.15 85.354C83.262 85.4567 83.318 85.592 83.318 85.76V94.426C83.318 94.5847 83.262 94.72 83.15 94.832C83.038 94.944 82.898 95 82.73 95C82.562 95 82.422 94.944 82.31 94.832C82.198 94.72 82.142 94.5847 82.142 94.426V86.824L82.492 86.894L79.188 91.92C79.132 91.9853 79.062 92.0413 78.978 92.088C78.9033 92.1347 78.824 92.158 78.74 92.158C78.656 92.158 78.572 92.1347 78.488 92.088C78.404 92.0413 78.334 91.9853 78.278 91.92L75.016 86.894L75.31 86.53V94.426C75.31 94.5847 75.2587 94.72 75.156 94.832C75.0533 94.944 74.9227 95 74.764 95C74.6053 95 74.4747 94.944 74.372 94.832C74.2787 94.72 74.232 94.5847 74.232 94.426V85.76C74.232 85.6107 74.2833 85.48 74.386 85.368C74.498 85.2467 74.638 85.186 74.806 85.186ZM90.9931 87.65C91.1517 87.65 91.2824 87.706 91.3851 87.818C91.4971 87.9207 91.5531 88.0513 91.5531 88.21V94.314C91.5531 95.098 91.3991 95.7467 91.0911 96.26C90.7831 96.7827 90.3677 97.17 89.8451 97.422C89.3317 97.674 88.7484 97.8 88.0951 97.8C87.7311 97.8 87.3811 97.7627 87.0451 97.688C86.7091 97.6133 86.4337 97.5153 86.2191 97.394C86.0417 97.31 85.9157 97.2027 85.8411 97.072C85.7757 96.9507 85.7664 96.82 85.8131 96.68C85.8784 96.512 85.9717 96.3953 86.0931 96.33C86.2237 96.2647 86.3591 96.2647 86.4991 96.33C86.6484 96.3953 86.8631 96.484 87.1431 96.596C87.4324 96.7173 87.7544 96.778 88.1091 96.778C88.5944 96.778 89.0097 96.6847 89.3551 96.498C89.7004 96.3113 89.9664 96.036 90.1531 95.672C90.3397 95.3173 90.4331 94.874 90.4331 94.342V93.348L90.6011 93.698C90.4517 93.9873 90.2511 94.2393 89.9991 94.454C89.7471 94.6687 89.4577 94.8367 89.1311 94.958C88.8044 95.0793 88.4451 95.14 88.0531 95.14C87.5211 95.14 87.0684 95.028 86.6951 94.804C86.3311 94.5707 86.0511 94.2533 85.8551 93.852C85.6684 93.4413 85.5751 92.97 85.5751 92.438V88.21C85.5751 88.0513 85.6264 87.9207 85.7291 87.818C85.8411 87.706 85.9764 87.65 86.1351 87.65C86.3031 87.65 86.4384 87.706 86.5411 87.818C86.6437 87.9207 86.6951 88.0513 86.6951 88.21V92.186C86.6951 92.8207 86.8351 93.3013 87.1151 93.628C87.3951 93.9453 87.8291 94.104 88.4171 94.104C88.7904 94.104 89.1264 94.02 89.4251 93.852C89.7331 93.684 89.9757 93.4553 90.1531 93.166C90.3397 92.8673 90.4331 92.5407 90.4331 92.186V88.21C90.4331 88.0513 90.4844 87.9207 90.5871 87.818C90.6897 87.706 90.8251 87.65 90.9931 87.65ZM103.083 93.894C103.242 93.894 103.377 93.95 103.489 94.062C103.601 94.1647 103.657 94.2953 103.657 94.454C103.657 94.6127 103.601 94.7433 103.489 94.846C103.377 94.9487 103.242 95 103.083 95H98.2393C98.0806 95 97.9453 94.944 97.8333 94.832C97.7306 94.72 97.6793 94.5847 97.6793 94.426V85.76C97.6793 85.6013 97.7353 85.4707 97.8473 85.368C97.9593 85.256 98.0993 85.2 98.2673 85.2C98.4259 85.2 98.5613 85.256 98.6733 85.368C98.7853 85.4707 98.8413 85.6013 98.8413 85.76V94.146L98.5613 93.894H103.083ZM106.149 94.426C106.149 94.5847 106.093 94.72 105.981 94.832C105.878 94.944 105.748 95 105.589 95C105.421 95 105.286 94.944 105.183 94.832C105.08 94.72 105.029 94.5847 105.029 94.426V88.21C105.029 88.0513 105.08 87.9207 105.183 87.818C105.295 87.706 105.43 87.65 105.589 87.65C105.748 87.65 105.878 87.706 105.981 87.818C106.093 87.9207 106.149 88.0513 106.149 88.21V94.426ZM105.589 86.712C105.356 86.712 105.183 86.6653 105.071 86.572C104.959 86.4787 104.903 86.334 104.903 86.138V85.942C104.903 85.746 104.964 85.6013 105.085 85.508C105.206 85.4147 105.379 85.368 105.603 85.368C105.827 85.368 105.995 85.4147 106.107 85.508C106.219 85.6013 106.275 85.746 106.275 85.942V86.138C106.275 86.334 106.214 86.4787 106.093 86.572C105.981 86.6653 105.813 86.712 105.589 86.712ZM111.185 84.668C111.344 84.668 111.507 84.6867 111.675 84.724C111.852 84.7613 112.002 84.8267 112.123 84.92C112.254 85.0133 112.319 85.1393 112.319 85.298C112.319 85.4473 112.272 85.5733 112.179 85.676C112.086 85.7693 111.974 85.816 111.843 85.816C111.759 85.816 111.642 85.7927 111.493 85.746C111.344 85.69 111.19 85.662 111.031 85.662C110.816 85.662 110.639 85.7087 110.499 85.802C110.368 85.8953 110.27 86.0213 110.205 86.18C110.149 86.3293 110.121 86.4973 110.121 86.684V94.426C110.121 94.5847 110.065 94.72 109.953 94.832C109.85 94.944 109.72 95 109.561 95C109.393 95 109.258 94.944 109.155 94.832C109.052 94.72 109.001 94.5847 109.001 94.426V86.698C109.001 86.0727 109.192 85.578 109.575 85.214C109.967 84.85 110.504 84.668 111.185 84.668ZM111.577 87.874C111.726 87.874 111.852 87.9253 111.955 88.028C112.058 88.1213 112.109 88.2427 112.109 88.392C112.109 88.5413 112.058 88.6673 111.955 88.77C111.852 88.8633 111.726 88.91 111.577 88.91H108.063C107.914 88.91 107.788 88.8587 107.685 88.756C107.582 88.6533 107.531 88.532 107.531 88.392C107.531 88.2333 107.582 88.1073 107.685 88.014C107.788 87.9207 107.914 87.874 108.063 87.874H111.577ZM116.415 95.14C115.669 95.14 115.015 94.9813 114.455 94.664C113.895 94.3467 113.457 93.9127 113.139 93.362C112.831 92.802 112.677 92.158 112.677 91.43C112.677 90.618 112.836 89.9273 113.153 89.358C113.48 88.7793 113.9 88.3407 114.413 88.042C114.936 87.734 115.487 87.58 116.065 87.58C116.495 87.58 116.91 87.6593 117.311 87.818C117.713 87.9767 118.067 88.21 118.375 88.518C118.683 88.8167 118.931 89.1807 119.117 89.61C119.304 90.03 119.402 90.5013 119.411 91.024C119.411 91.1733 119.355 91.2993 119.243 91.402C119.131 91.5047 119.001 91.556 118.851 91.556H113.321L113.069 90.59H118.459L118.235 90.786V90.478C118.198 90.0953 118.067 89.7687 117.843 89.498C117.629 89.218 117.363 89.0033 117.045 88.854C116.737 88.7047 116.411 88.63 116.065 88.63C115.785 88.63 115.505 88.6813 115.225 88.784C114.955 88.8773 114.707 89.036 114.483 89.26C114.269 89.4747 114.091 89.7547 113.951 90.1C113.821 90.4453 113.755 90.8607 113.755 91.346C113.755 91.8873 113.863 92.3633 114.077 92.774C114.301 93.1847 114.609 93.5113 115.001 93.754C115.393 93.9873 115.851 94.104 116.373 94.104C116.7 94.104 116.985 94.062 117.227 93.978C117.47 93.894 117.68 93.7913 117.857 93.67C118.035 93.5393 118.184 93.4087 118.305 93.278C118.427 93.194 118.543 93.152 118.655 93.152C118.795 93.152 118.907 93.1987 118.991 93.292C119.085 93.3853 119.131 93.4973 119.131 93.628C119.131 93.7867 119.057 93.9267 118.907 94.048C118.646 94.3373 118.291 94.594 117.843 94.818C117.395 95.0327 116.919 95.14 116.415 95.14ZM125.72 85.186C125.804 85.186 125.893 85.2093 125.986 85.256C126.089 85.3027 126.168 85.3633 126.224 85.438L129.934 91.052L129.444 91.038L133.196 85.438C133.317 85.2607 133.476 85.1767 133.672 85.186C133.821 85.1953 133.952 85.2513 134.064 85.354C134.176 85.4567 134.232 85.592 134.232 85.76V94.426C134.232 94.5847 134.176 94.72 134.064 94.832C133.952 94.944 133.812 95 133.644 95C133.476 95 133.336 94.944 133.224 94.832C133.112 94.72 133.056 94.5847 133.056 94.426V86.824L133.406 86.894L130.102 91.92C130.046 91.9853 129.976 92.0413 129.892 92.088C129.817 92.1347 129.738 92.158 129.654 92.158C129.57 92.158 129.486 92.1347 129.402 92.088C129.318 92.0413 129.248 91.9853 129.192 91.92L125.93 86.894L126.224 86.53V94.426C126.224 94.5847 126.173 94.72 126.07 94.832C125.967 94.944 125.837 95 125.678 95C125.519 95 125.389 94.944 125.286 94.832C125.193 94.72 125.146 94.5847 125.146 94.426V85.76C125.146 85.6107 125.197 85.48 125.3 85.368C125.412 85.2467 125.552 85.186 125.72 85.186ZM141.907 87.65C142.066 87.65 142.196 87.706 142.299 87.818C142.411 87.9207 142.467 88.0513 142.467 88.21V94.314C142.467 95.098 142.313 95.7467 142.005 96.26C141.697 96.7827 141.282 97.17 140.759 97.422C140.246 97.674 139.662 97.8 139.009 97.8C138.645 97.8 138.295 97.7627 137.959 97.688C137.623 97.6133 137.348 97.5153 137.133 97.394C136.956 97.31 136.83 97.2027 136.755 97.072C136.69 96.9507 136.68 96.82 136.727 96.68C136.792 96.512 136.886 96.3953 137.007 96.33C137.138 96.2647 137.273 96.2647 137.413 96.33C137.562 96.3953 137.777 96.484 138.057 96.596C138.346 96.7173 138.668 96.778 139.023 96.778C139.508 96.778 139.924 96.6847 140.269 96.498C140.614 96.3113 140.88 96.036 141.067 95.672C141.254 95.3173 141.347 94.874 141.347 94.342V93.348L141.515 93.698C141.366 93.9873 141.165 94.2393 140.913 94.454C140.661 94.6687 140.372 94.8367 140.045 94.958C139.718 95.0793 139.359 95.14 138.967 95.14C138.435 95.14 137.982 95.028 137.609 94.804C137.245 94.5707 136.965 94.2533 136.769 93.852C136.582 93.4413 136.489 92.97 136.489 92.438V88.21C136.489 88.0513 136.54 87.9207 136.643 87.818C136.755 87.706 136.89 87.65 137.049 87.65C137.217 87.65 137.352 87.706 137.455 87.818C137.558 87.9207 137.609 88.0513 137.609 88.21V92.186C137.609 92.8207 137.749 93.3013 138.029 93.628C138.309 93.9453 138.743 94.104 139.331 94.104C139.704 94.104 140.04 94.02 140.339 93.852C140.647 93.684 140.89 93.4553 141.067 93.166C141.254 92.8673 141.347 92.5407 141.347 92.186V88.21C141.347 88.0513 141.398 87.9207 141.501 87.818C141.604 87.706 141.739 87.65 141.907 87.65ZM151.449 95.14C150.759 95.14 150.152 95.0373 149.629 94.832C149.107 94.6267 148.603 94.3 148.117 93.852C148.052 93.7867 147.996 93.7167 147.949 93.642C147.912 93.558 147.893 93.4693 147.893 93.376C147.893 93.2267 147.945 93.096 148.047 92.984C148.159 92.8627 148.295 92.802 148.453 92.802C148.584 92.802 148.701 92.8533 148.803 92.956C149.167 93.3107 149.559 93.5813 149.979 93.768C150.409 93.9547 150.889 94.048 151.421 94.048C151.832 94.048 152.201 93.9827 152.527 93.852C152.863 93.7213 153.129 93.5393 153.325 93.306C153.521 93.0727 153.619 92.802 153.619 92.494C153.61 92.1207 153.498 91.8127 153.283 91.57C153.078 91.3273 152.789 91.1267 152.415 90.968C152.051 90.8 151.627 90.66 151.141 90.548C150.712 90.4453 150.315 90.3193 149.951 90.17C149.597 90.0207 149.289 89.8387 149.027 89.624C148.766 89.4 148.561 89.134 148.411 88.826C148.271 88.5087 148.201 88.14 148.201 87.72C148.201 87.188 148.341 86.7213 148.621 86.32C148.901 85.9187 149.289 85.6107 149.783 85.396C150.278 85.172 150.847 85.06 151.491 85.06C152.061 85.06 152.597 85.1533 153.101 85.34C153.615 85.5267 154.025 85.7833 154.333 86.11C154.52 86.2873 154.613 86.46 154.613 86.628C154.613 86.768 154.553 86.8987 154.431 87.02C154.319 87.132 154.189 87.188 154.039 87.188C153.937 87.188 153.843 87.1507 153.759 87.076C153.601 86.8987 153.4 86.74 153.157 86.6C152.915 86.46 152.649 86.348 152.359 86.264C152.07 86.18 151.781 86.138 151.491 86.138C151.062 86.138 150.684 86.2033 150.357 86.334C150.031 86.4553 149.774 86.6327 149.587 86.866C149.41 87.09 149.321 87.3607 149.321 87.678C149.321 88.0327 149.424 88.3267 149.629 88.56C149.835 88.784 150.11 88.9707 150.455 89.12C150.801 89.26 151.183 89.386 151.603 89.498C152.061 89.61 152.481 89.7407 152.863 89.89C153.255 90.03 153.591 90.2073 153.871 90.422C154.151 90.6367 154.366 90.912 154.515 91.248C154.674 91.5747 154.753 91.9807 154.753 92.466C154.753 92.9793 154.609 93.4367 154.319 93.838C154.03 94.2393 153.633 94.5567 153.129 94.79C152.635 95.014 152.075 95.1307 151.449 95.14ZM156.156 87.804H159.446C159.596 87.804 159.717 87.8553 159.81 87.958C159.913 88.0607 159.964 88.182 159.964 88.322C159.964 88.4713 159.913 88.5973 159.81 88.7C159.717 88.7933 159.596 88.84 159.446 88.84H156.156C156.016 88.84 155.895 88.7887 155.792 88.686C155.69 88.5833 155.638 88.4573 155.638 88.308C155.638 88.168 155.69 88.0513 155.792 87.958C155.895 87.8553 156.016 87.804 156.156 87.804ZM157.626 85.9C157.785 85.9 157.916 85.956 158.018 86.068C158.121 86.1707 158.172 86.3013 158.172 86.46V93.222C158.172 93.446 158.205 93.614 158.27 93.726C158.336 93.838 158.42 93.9173 158.522 93.964C158.634 94.0013 158.742 94.02 158.844 94.02C158.938 94.02 159.017 94.006 159.082 93.978C159.157 93.9407 159.241 93.922 159.334 93.922C159.428 93.922 159.512 93.9687 159.586 94.062C159.67 94.146 159.712 94.258 159.712 94.398C159.712 94.566 159.614 94.7107 159.418 94.832C159.222 94.944 159.003 95 158.76 95C158.63 95 158.466 94.9907 158.27 94.972C158.084 94.9533 157.897 94.8927 157.71 94.79C157.524 94.6873 157.365 94.5193 157.234 94.286C157.113 94.0433 157.052 93.7073 157.052 93.278V86.46C157.052 86.3013 157.108 86.1707 157.22 86.068C157.332 85.956 157.468 85.9 157.626 85.9ZM166.94 87.65C167.099 87.65 167.23 87.706 167.332 87.818C167.444 87.9207 167.5 88.0513 167.5 88.21V94.314C167.5 95.098 167.346 95.7467 167.038 96.26C166.73 96.7827 166.315 97.17 165.792 97.422C165.279 97.674 164.696 97.8 164.042 97.8C163.678 97.8 163.328 97.7627 162.992 97.688C162.656 97.6133 162.381 97.5153 162.166 97.394C161.989 97.31 161.863 97.2027 161.788 97.072C161.723 96.9507 161.714 96.82 161.76 96.68C161.826 96.512 161.919 96.3953 162.04 96.33C162.171 96.2647 162.306 96.2647 162.446 96.33C162.596 96.3953 162.81 96.484 163.09 96.596C163.38 96.7173 163.702 96.778 164.056 96.778C164.542 96.778 164.957 96.6847 165.302 96.498C165.648 96.3113 165.914 96.036 166.1 95.672C166.287 95.3173 166.38 94.874 166.38 94.342V93.348L166.548 93.698C166.399 93.9873 166.198 94.2393 165.946 94.454C165.694 94.6687 165.405 94.8367 165.078 94.958C164.752 95.0793 164.392 95.14 164 95.14C163.468 95.14 163.016 95.028 162.642 94.804C162.278 94.5707 161.998 94.2533 161.802 93.852C161.616 93.4413 161.522 92.97 161.522 92.438V88.21C161.522 88.0513 161.574 87.9207 161.676 87.818C161.788 87.706 161.924 87.65 162.082 87.65C162.25 87.65 162.386 87.706 162.488 87.818C162.591 87.9207 162.642 88.0513 162.642 88.21V92.186C162.642 92.8207 162.782 93.3013 163.062 93.628C163.342 93.9453 163.776 94.104 164.364 94.104C164.738 94.104 165.074 94.02 165.372 93.852C165.68 93.684 165.923 93.4553 166.1 93.166C166.287 92.8673 166.38 92.5407 166.38 92.186V88.21C166.38 88.0513 166.432 87.9207 166.534 87.818C166.637 87.706 166.772 87.65 166.94 87.65ZM170.807 94.426C170.807 94.5847 170.751 94.72 170.639 94.832C170.527 94.944 170.392 95 170.233 95C170.074 95 169.944 94.944 169.841 94.832C169.738 94.72 169.687 94.5847 169.687 94.426V85.2C169.687 85.0413 169.738 84.9107 169.841 84.808C169.953 84.696 170.088 84.64 170.247 84.64C170.415 84.64 170.55 84.696 170.653 84.808C170.756 84.9107 170.807 85.0413 170.807 85.2V94.426ZM176.189 95.14C175.442 95.14 174.789 94.9813 174.229 94.664C173.669 94.3467 173.23 93.9127 172.913 93.362C172.605 92.802 172.451 92.158 172.451 91.43C172.451 90.618 172.609 89.9273 172.927 89.358C173.253 88.7793 173.673 88.3407 174.187 88.042C174.709 87.734 175.26 87.58 175.839 87.58C176.268 87.58 176.683 87.6593 177.085 87.818C177.486 87.9767 177.841 88.21 178.149 88.518C178.457 88.8167 178.704 89.1807 178.891 89.61C179.077 90.03 179.175 90.5013 179.185 91.024C179.185 91.1733 179.129 91.2993 179.017 91.402C178.905 91.5047 178.774 91.556 178.625 91.556H173.095L172.843 90.59H178.233L178.009 90.786V90.478C177.971 90.0953 177.841 89.7687 177.617 89.498C177.402 89.218 177.136 89.0033 176.819 88.854C176.511 88.7047 176.184 88.63 175.839 88.63C175.559 88.63 175.279 88.6813 174.999 88.784C174.728 88.8773 174.481 89.036 174.257 89.26C174.042 89.4747 173.865 89.7547 173.725 90.1C173.594 90.4453 173.529 90.8607 173.529 91.346C173.529 91.8873 173.636 92.3633 173.851 92.774C174.075 93.1847 174.383 93.5113 174.775 93.754C175.167 93.9873 175.624 94.104 176.147 94.104C176.473 94.104 176.758 94.062 177.001 93.978C177.243 93.894 177.453 93.7913 177.631 93.67C177.808 93.5393 177.957 93.4087 178.079 93.278C178.2 93.194 178.317 93.152 178.429 93.152C178.569 93.152 178.681 93.1987 178.765 93.292C178.858 93.3853 178.905 93.4973 178.905 93.628C178.905 93.7867 178.83 93.9267 178.681 94.048C178.419 94.3373 178.065 94.594 177.617 94.818C177.169 95.0327 176.693 95.14 176.189 95.14Z" fill="black"/>
</svg>
