<svg width="17" height="16" viewBox="0 0 17 16" fill="none" xmlns="http://www.w3.org/2000/svg">
<path d="M14.1816 3.48659C13.1117 3.37992 12.0418 3.29992 10.9653 3.23992V3.23325L10.8191 2.36659C10.7194 1.75325 10.5732 0.833252 9.01821 0.833252H7.27716C5.72882 0.833252 5.58262 1.71325 5.4763 2.35992L5.33675 3.21325C4.71874 3.25325 4.10074 3.29325 3.48273 3.35325L2.1271 3.48659C1.848 3.51325 1.64865 3.75992 1.67523 4.03325C1.70181 4.30659 1.94104 4.50659 2.22014 4.47992L3.57576 4.34659C7.05786 3.99992 10.5665 4.13325 14.0885 4.48659C14.1085 4.48659 14.1217 4.48659 14.1417 4.48659C14.3942 4.48659 14.6135 4.29325 14.6401 4.03325C14.66 3.75992 14.4607 3.51325 14.1816 3.48659Z" fill="#292D32"/>
<path d="M12.9588 5.42675C12.7994 5.26008 12.5801 5.16675 12.3541 5.16675H3.95455C3.72861 5.16675 3.50268 5.26008 3.34984 5.42675C3.197 5.59341 3.11061 5.82008 3.1239 6.05341L3.5359 12.8934C3.609 13.9067 3.70203 15.1734 6.02122 15.1734H10.2875C12.6066 15.1734 12.6997 13.9134 12.7728 12.8934L13.1848 6.06008C13.1981 5.82008 13.1117 5.59341 12.9588 5.42675ZM9.25745 11.8334H7.04458C6.77213 11.8334 6.54619 11.6067 6.54619 11.3334C6.54619 11.0601 6.77213 10.8334 7.04458 10.8334H9.25745C9.5299 10.8334 9.75584 11.0601 9.75584 11.3334C9.75584 11.6067 9.5299 11.8334 9.25745 11.8334ZM9.81564 9.16675H6.49303C6.22058 9.16675 5.99464 8.94008 5.99464 8.66675C5.99464 8.39341 6.22058 8.16675 6.49303 8.16675H9.81564C10.0881 8.16675 10.314 8.39341 10.314 8.66675C10.314 8.94008 10.0881 9.16675 9.81564 9.16675Z" fill="#292D32"/>
</svg>
